<svg width="60" height="60" viewBox="0 0 60 60" fill="none" xmlns="http://www.w3.org/2000/svg">
<rect width="60" height="60" rx="16" fill="white"/>
<circle cx="46" cy="14" r="4" fill="#F8B602"/>
<path d="M42.5 26.6667H41.6666V22.5C41.6666 21.837 41.4032 21.2011 40.9344 20.7322C40.4655 20.2634 39.8297 20 39.1666 20H19.1666C18.5036 20 17.8677 20.2634 17.3989 20.7322C16.93 21.2011 16.6666 21.837 16.6666 22.5V35.8333C16.6666 36.4964 16.93 37.1323 17.3989 37.6011C17.8677 38.0699 18.5036 38.3333 19.1666 38.3333H20V39.8333C20.0006 40.0802 20.0743 40.3213 20.2117 40.5264C20.349 40.7315 20.544 40.8914 20.772 40.986C21 41.0806 21.2509 41.1057 21.4931 41.058C21.7353 41.0104 21.9581 40.8922 22.1333 40.7183L24.5116 38.3333H26.6666V39.1667C26.6666 39.8297 26.93 40.4656 27.3989 40.9344C27.8677 41.4033 28.5036 41.6667 29.1666 41.6667H37.155L39.5333 44.045C39.7078 44.2193 39.93 44.3381 40.1718 44.3864C40.4137 44.4347 40.6645 44.4103 40.8925 44.3164C41.1206 44.2225 41.3158 44.0633 41.4535 43.8587C41.5913 43.6541 41.6654 43.4133 41.6666 43.1667V41.6667H42.5C43.163 41.6667 43.7989 41.4033 44.2677 40.9344C44.7366 40.4656 45 39.8297 45 39.1667V29.1667C45 28.5036 44.7366 27.8677 44.2677 27.3989C43.7989 26.9301 43.163 26.6667 42.5 26.6667ZM40 35.8333C40 36.0543 39.9122 36.2663 39.7559 36.4226C39.5996 36.5789 39.3876 36.6667 39.1666 36.6667H24.1666C24.0571 36.6665 23.9486 36.6879 23.8474 36.7296C23.7462 36.7714 23.6542 36.8327 23.5766 36.91L21.6666 38.8217V37.5C21.6666 37.279 21.5788 37.067 21.4225 36.9107C21.2663 36.7545 21.0543 36.6667 20.8333 36.6667H19.1666C18.9456 36.6667 18.7337 36.5789 18.5774 36.4226C18.4211 36.2663 18.3333 36.0543 18.3333 35.8333V22.5C18.3333 22.279 18.4211 22.067 18.5774 21.9107C18.7337 21.7545 18.9456 21.6667 19.1666 21.6667H39.1666C39.3876 21.6667 39.5996 21.7545 39.7559 21.9107C39.9122 22.067 40 22.279 40 22.5V35.8333Z" fill="#2E2E2E"/>
<path d="M28.3333 24.1667C28.1123 24.1667 27.9004 24.2545 27.7441 24.4107C27.5878 24.567 27.5 24.779 27.5 25V26.6667C27.4964 26.954 27.4175 27.2354 27.2713 27.4828C27.1251 27.7301 26.9166 27.9349 26.6667 28.0767V25C26.6667 24.779 26.5789 24.567 26.4226 24.4107C26.2663 24.2545 26.0543 24.1667 25.8333 24.1667C25.6123 24.1667 25.4004 24.2545 25.2441 24.4107C25.0878 24.567 25 24.779 25 25V28.0767C24.75 27.9349 24.5416 27.7301 24.3954 27.4828C24.2492 27.2354 24.1703 26.954 24.1667 26.6667V25C24.1667 24.779 24.0789 24.567 23.9226 24.4107C23.7663 24.2545 23.5543 24.1667 23.3333 24.1667C23.1123 24.1667 22.9004 24.2545 22.7441 24.4107C22.5878 24.567 22.5 24.779 22.5 25V26.6667C22.5028 27.4035 22.7496 28.1187 23.2019 28.7004C23.6542 29.282 24.2865 29.6975 25 29.8817V33.3333C25 33.5543 25.0878 33.7663 25.2441 33.9226C25.4004 34.0789 25.6123 34.1667 25.8333 34.1667C26.0543 34.1667 26.2663 34.0789 26.4226 33.9226C26.5789 33.7663 26.6667 33.5543 26.6667 33.3333V29.8817C27.3801 29.6975 28.0124 29.282 28.4648 28.7004C28.9171 28.1187 29.1639 27.4035 29.1667 26.6667V25C29.1667 24.779 29.0789 24.567 28.9226 24.4107C28.7663 24.2545 28.5543 24.1667 28.3333 24.1667ZM32.04 24.255C31.913 24.1913 31.7717 24.1612 31.6298 24.1675C31.4878 24.1738 31.3498 24.2163 31.2289 24.291C31.108 24.3656 31.0081 24.4699 30.9389 24.594C30.8697 24.7181 30.8333 24.8579 30.8333 25V33.3333C30.8333 33.5543 30.9211 33.7663 31.0774 33.9226C31.2337 34.0789 31.4457 34.1667 31.6667 34.1667C31.8877 34.1667 32.0996 34.0789 32.2559 33.9226C32.4122 33.7663 32.5 33.5543 32.5 33.3333V32.3183L34.8867 31.72C35.1746 31.6419 35.4264 31.4663 35.5991 31.2231C35.7717 30.9798 35.8545 30.6842 35.8333 30.3867C35.8355 29.1126 35.4815 27.8633 34.8112 26.7798C34.1409 25.6963 33.181 24.8218 32.04 24.255Z" fill="#2E2E2E"/>
</svg>
