<svg width="56" height="57" viewBox="0 0 56 57" fill="none" xmlns="http://www.w3.org/2000/svg">
<path d="M14.4083 55.625C9.97497 55.625 5.54164 54.05 2.79997 50.4917C0.408302 47.4 -0.291698 43.2583 0.699968 38.7667C1.6333 34.6833 3.96663 30.8333 6.99997 28.5583C11.9583 24.7667 35.0583 13.2167 41.1833 21.2083C43.8083 24.7083 42.525 30.6 37.45 38.2417C33.4833 44.1917 28.1166 49.9083 25.0833 52.1833C22.225 54.4 18.3166 55.625 14.4083 55.625ZM34.0083 20.6833C26.075 20.6833 12.8916 26.9833 8.39997 30.3667C5.8333 32.35 3.79164 35.675 2.97497 39.2333C2.09997 43.025 2.74164 46.525 4.66664 49.0917C8.92497 54.6334 18.4916 54.3417 23.6833 50.4333C26.6 48.2167 31.85 42.5583 35.525 37.0167C39.9583 30.3083 41.3 25.2333 39.3166 22.6083C38.2666 21.2667 36.3416 20.6833 34.0083 20.6833Z" fill="#2E2E2E"/>
<path d="M14.4666 49.85C11.375 49.85 8.80831 48.8 7.40831 46.9917C6.12498 45.3 5.71664 42.7334 6.35831 40.05C6.94164 37.25 8.51664 34.625 10.5 33.1667C14.6416 30.0167 27.0666 24.1833 34.0083 24.1833C35.8166 24.1833 36.5166 24.5917 36.6333 24.7084C36.9833 25.1167 37.275 28.15 32.6666 35.0917C28.8166 40.8084 23.7416 46 21.525 47.6917C19.775 49.0334 17.0916 49.85 14.4666 49.85Z" fill="#F8B602"/>
<path d="M53.725 16.8333C53.2583 16.1917 52.675 15.725 52.0333 15.375C50.8083 14.7333 49.875 13.5667 49.6417 12.225C49.4667 11.525 49.175 10.825 48.7083 10.2417C47.25 8.43335 44.275 8.02502 42.35 9.36668C40.1917 10.8833 39.725 13.9167 41.3 16.0167C41.7083 16.5417 41.65 17.3 41.125 17.65L37.8583 20.1583C38.7917 20.5667 39.6083 21.0917 40.1917 21.9083C40.775 22.6667 41.125 23.6 41.2417 24.5917L44.5083 22.0833C45.0333 21.675 45.7333 21.7917 46.1417 22.3167C47.775 24.4167 50.8083 24.7667 52.85 23.075C54.7167 21.675 55.0667 18.7 53.725 16.8333Z" fill="#A6C44A"/>
<path d="M40.3666 26.75L40.1333 24.7667C40.0166 23.8917 39.7833 23.1917 39.3166 22.6084C38.85 22.025 38.2666 21.5584 37.45 21.2667L35.5833 20.5084L40.4833 16.775L40.425 16.7167C39.4333 15.4334 39.025 13.8584 39.3166 12.2834C39.55 10.7084 40.425 9.30835 41.7083 8.37502C44.1 6.68335 47.7166 7.15002 49.5833 9.48335C50.1666 10.2417 50.575 11.0584 50.75 11.9334C50.9833 12.9834 51.625 13.8584 52.5583 14.325C53.375 14.7334 54.075 15.375 54.6583 16.1334C56.4083 18.525 55.8833 22.1417 53.6083 24.0084C52.3833 25.0584 50.8083 25.4667 49.2333 25.2917C47.6583 25.1167 46.2583 24.3 45.2666 23.0167L45.2083 22.9584L40.3666 26.75ZM45.2083 20.7417C45.325 20.7417 45.4416 20.7417 45.5 20.7417C46.1416 20.8 46.6666 21.15 47.075 21.675C47.6583 22.4334 48.5333 22.9584 49.4666 23.075C50.4583 23.1917 51.3916 22.9 52.15 22.2584C53.4916 21.15 53.7833 18.875 52.7916 17.475C52.4416 17.0084 52.0333 16.6584 51.5666 16.3667C49.9916 15.55 48.8833 14.15 48.5333 12.4C48.4166 11.875 48.1833 11.35 47.8333 10.8834C46.725 9.54169 44.45 9.25002 43.05 10.2417C42.2333 10.825 41.7083 11.6417 41.5916 12.575C41.4166 13.5084 41.7083 14.5 42.2916 15.2584C42.7 15.7834 42.875 16.3667 42.7583 17.0084C42.7 17.5917 42.35 18.175 41.8833 18.525L40.0166 19.9834C40.4833 20.3334 40.8333 20.6834 41.1833 21.15C41.5333 21.6167 41.7666 22.0834 42 22.6084L43.8666 21.15C44.275 20.9167 44.7416 20.7417 45.2083 20.7417Z" fill="#2E2E2E"/>
<path d="M7.90397 37.1416L6.22736 36.9164L5.91674 39.229L7.59335 39.4542L7.90397 37.1416Z" fill="#2E2E2E"/>
<path d="M20.3849 37.4902L18.7083 37.265L18.3977 39.5775L20.0743 39.8027L20.3849 37.4902Z" fill="#2E2E2E"/>
<path d="M31.7651 34.8619L30.0884 34.6367L29.7778 36.9493L31.4544 37.1745L31.7651 34.8619Z" fill="#2E2E2E"/>
<path d="M14.902 48.0451L13.2254 47.8199L12.9148 50.1325L14.5914 50.3577L14.902 48.0451Z" fill="#2E2E2E"/>
<path d="M18.9258 30.8381L17.2491 30.6129L16.9385 32.9254L18.6151 33.1506L18.9258 30.8381Z" fill="#2E2E2E"/>
<path d="M30.7143 25.2949L29.0377 25.0697L28.727 27.3823L30.4037 27.6075L30.7143 25.2949Z" fill="#2E2E2E"/>
<path d="M15.6333 1.375H13.3V8.60833H15.6333V1.375Z" fill="#2E2E2E"/>
<path d="M8.75002 11.4667H6.41669V18.7H8.75002V11.4667Z" fill="#2E2E2E"/>
<path d="M22.575 9.19165H20.2417V16.425H22.575V9.19165Z" fill="#2E2E2E"/>
</svg>
